<?xml version="1.0" encoding="utf-8"?>
<!-- Generator: Adobe Illustrator 21.0.0, SVG Export Plug-In . SVG Version: 6.00 Build 0)  -->
<svg version="1.1" id="Camada_1" xmlns="http://www.w3.org/2000/svg" xmlns:xlink="http://www.w3.org/1999/xlink" x="0px" y="0px"
	 viewBox="0 0 600 600" style="enable-background:new 0 0 600 600;" xml:space="preserve">
<style type="text/css">
	.st0{opacity:0.2;}
	.st1{fill:#F0F0F0;}
	.st2{fill:#534B62;}
	.st3{fill:#D6D6D6;}
	.st4{fill:#BDBDBD;}
	.st5{fill:#5AB3B1;}
	.st6{fill:#FFFFFF;}
	.st7{fill:#414042;}
</style>
<g>
	<ellipse class="st0" cx="298.9" cy="451.9" rx="154.1" ry="9.2"/>
	<g>
		<g>
			<path class="st1" d="M148.5,366.8v31.5c0,3,2.5,5.5,5.5,5.5h289.7c3,0,5.5-2.5,5.5-5.5v-31.5H148.5z"/>
			<path class="st2" d="M449.2,192.6c0-3-2.5-5.5-5.5-5.5H154c-3,0-5.5,2.5-5.5,5.5v174.2h300.6V192.6z"/>
			<rect x="247.8" y="403.8" class="st3" width="103.4" height="31.7"/>
			<rect x="222.9" y="435.5" class="st1" width="151.7" height="14.9"/>
			<rect x="247.8" y="403.8" class="st4" width="103.4" height="11.5"/>
			<rect x="164.1" y="202.8" class="st5" width="269.6" height="147.9"/>
		</g>
		<g>
			<polygon class="st2" points="270.3,231.8 251.5,250.5 232.8,231.8 225.3,239.3 244,258 225.3,276.8 232.8,284.3 251.5,265.6 
				270.3,284.3 277.8,276.8 259,258 277.8,239.3 			"/>
			<polygon class="st2" points="372.5,239.3 365,231.8 346.2,250.5 327.4,231.8 319.9,239.3 338.7,258 319.9,276.8 327.4,284.3 
				346.2,265.6 365,284.3 372.5,276.8 353.7,258 			"/>
		</g>
		<g>
			<path class="st2" d="M339.1,330.1c-39.7-27.4-79.9-0.3-80.3,0l-5.2-7.5c0.5-0.3,45.9-31,90.7,0L339.1,330.1z"/>
		</g>
	</g>
	<g>
		<path class="st6" d="M545.2,122.4H409.3c-3.4,0-6.1,2.7-6.1,6.1v87.8c0,3.4,2.7,6.1,6.1,6.1H425l-15.5,29.4l52.3-29.4h83.4
			c3.4,0,6.1-2.7,6.1-6.1v-87.8C551.3,125.2,548.6,122.4,545.2,122.4z"/>
		<g>
			<g>
				<path class="st7" d="M445.4,178.8c-0.4,0-0.8-0.1-1-0.4c-0.3-0.3-0.4-0.6-0.4-1v-6.7h-17.1c-0.4,0-0.8-0.1-1-0.4
					c-0.3-0.3-0.4-0.6-0.4-1v-3.9c0-0.5,0.1-1,0.4-1.3c0.2-0.4,0.5-0.8,0.9-1.2l16.9-21c0.7-0.9,1.5-1.4,2.3-1.4h4.2
					c0.4,0,0.8,0.1,1,0.4c0.3,0.3,0.4,0.6,0.4,1v22h4.7c0.4,0,0.8,0.1,1,0.4c0.3,0.3,0.4,0.6,0.4,1v3.9c0,0.4-0.1,0.8-0.4,1
					c-0.3,0.3-0.6,0.4-1,0.4h-4.7v6.7c0,0.4-0.1,0.8-0.4,1c-0.3,0.3-0.6,0.4-1,0.4H445.4z M443.9,163.7v-11.8l-9.4,11.8H443.9z"/>
				<path class="st7" d="M492.1,154.6c0,0.7,0.1,1.5,0.1,2.3c0,0.8,0,1.7,0,2.6c0,0.9,0,1.7,0,2.6c0,0.8,0,1.6-0.1,2.3
					c-0.1,2.1-0.4,4.1-1,5.9c-0.5,1.8-1.4,3.4-2.5,4.7c-1.2,1.3-2.7,2.4-4.5,3.1c-1.9,0.8-4.1,1.1-6.8,1.1c-2.7,0-5-0.4-6.8-1.1
					c-1.8-0.8-3.3-1.8-4.5-3.1c-1.2-1.3-2-2.9-2.5-4.7c-0.5-1.8-0.9-3.8-1-5.9c-0.1-1.4-0.1-3-0.1-4.8c0-1.8,0-3.4,0.1-4.8
					c0.1-2.1,0.4-4.1,1-6c0.5-1.9,1.4-3.5,2.5-4.8c1.2-1.4,2.7-2.4,4.5-3.2c1.8-0.8,4.1-1.2,6.8-1.2c2.7,0,4.9,0.4,6.8,1.1
					c1.9,0.8,3.4,1.8,4.5,3.1c1.2,1.3,2,2.9,2.5,4.7C491.7,150.5,492,152.4,492.1,154.6z M469.9,164.1c0.2,2.6,0.8,4.7,1.9,6.1
					c1.1,1.5,2.9,2.2,5.5,2.2c2.6,0,4.4-0.7,5.5-2.2c1.1-1.4,1.7-3.5,1.9-6.1c0.1-1.4,0.1-2.9,0.1-4.6c0-1.7,0-3.2-0.1-4.6
					c-0.2-2.6-0.8-4.7-1.9-6.1c-1.1-1.5-2.9-2.2-5.5-2.2c-2.6,0-4.4,0.7-5.5,2.2c-1.1,1.4-1.7,3.5-1.9,6.1c-0.1,1.4-0.1,2.9-0.1,4.6
					C469.8,161.2,469.8,162.7,469.9,164.1z"/>
				<path class="st7" d="M517,178.8c-0.4,0-0.8-0.1-1-0.4c-0.3-0.3-0.4-0.6-0.4-1v-6.7h-17.1c-0.4,0-0.8-0.1-1-0.4
					c-0.3-0.3-0.4-0.6-0.4-1v-3.9c0-0.5,0.1-1,0.4-1.3c0.2-0.4,0.5-0.8,0.9-1.2l16.9-21c0.7-0.9,1.5-1.4,2.3-1.4h4.2
					c0.4,0,0.8,0.1,1,0.4c0.3,0.3,0.4,0.6,0.4,1v22h4.7c0.4,0,0.8,0.1,1,0.4c0.3,0.3,0.4,0.6,0.4,1v3.9c0,0.4-0.1,0.8-0.4,1
					c-0.3,0.3-0.6,0.4-1,0.4h-4.7v6.7c0,0.4-0.1,0.8-0.4,1c-0.3,0.3-0.6,0.4-1,0.4H517z M515.5,163.7v-11.8l-9.4,11.8H515.5z"/>
			</g>
			<g>
				<path class="st7" d="M448.4,201.6c0.2,0,0.3,0.1,0.4,0.2c0.1,0.1,0.2,0.3,0.2,0.4v0.8c0,0.2-0.1,0.3-0.2,0.4
					c-0.1,0.1-0.3,0.2-0.4,0.2h-8.7c-0.2,0-0.3-0.1-0.4-0.2c-0.1-0.1-0.2-0.3-0.2-0.4V189c0-0.2,0.1-0.3,0.2-0.4
					c0.1-0.1,0.3-0.2,0.4-0.2h8.5c0.2,0,0.3,0.1,0.4,0.2c0.1,0.1,0.2,0.3,0.2,0.4v0.8c0,0.2-0.1,0.3-0.2,0.4
					c-0.1,0.1-0.3,0.2-0.4,0.2h-7.1v4.6h6.6c0.2,0,0.3,0.1,0.4,0.2c0.1,0.1,0.2,0.3,0.2,0.4v0.8c0,0.2-0.1,0.3-0.2,0.4
					c-0.1,0.1-0.3,0.2-0.4,0.2h-6.6v4.7H448.4z"/>
				<path class="st7" d="M459.8,188.5c0.7,0,1.4,0.1,2,0.3c0.6,0.2,1.2,0.4,1.6,0.8c0.5,0.4,0.9,0.8,1.1,1.4c0.3,0.6,0.4,1.2,0.4,2
					c0,1.2-0.3,2.1-0.9,2.8c-0.6,0.7-1.3,1.2-2.2,1.5l3.3,5.7c0,0.1,0.1,0.2,0.1,0.2c0,0.1,0,0.2-0.1,0.3c-0.1,0.1-0.2,0.1-0.3,0.1
					h-0.9c-0.3,0-0.5-0.1-0.6-0.2c-0.1-0.1-0.2-0.3-0.3-0.4l-3.1-5.5H456v5.5c0,0.2-0.1,0.3-0.2,0.4c-0.1,0.1-0.3,0.2-0.4,0.2h-0.9
					c-0.2,0-0.3-0.1-0.4-0.2c-0.1-0.1-0.2-0.3-0.2-0.4V189c0-0.2,0.1-0.3,0.2-0.4c0.1-0.1,0.3-0.2,0.4-0.2H459.8z M456,195.5h3.6
					c1,0,1.8-0.2,2.4-0.6c0.6-0.4,0.9-1.1,0.9-2c0-0.9-0.3-1.6-0.9-2c-0.6-0.4-1.4-0.6-2.4-0.6H456V195.5z"/>
				<path class="st7" d="M476,188.5c0.7,0,1.4,0.1,2,0.3c0.6,0.2,1.2,0.4,1.6,0.8c0.5,0.4,0.9,0.8,1.1,1.4c0.3,0.6,0.4,1.2,0.4,2
					c0,1.2-0.3,2.1-0.9,2.8c-0.6,0.7-1.3,1.2-2.2,1.5l3.3,5.7c0,0.1,0.1,0.2,0.1,0.2c0,0.1,0,0.2-0.1,0.3c-0.1,0.1-0.2,0.1-0.3,0.1
					H480c-0.3,0-0.5-0.1-0.6-0.2c-0.1-0.1-0.2-0.3-0.3-0.4l-3.1-5.5h-3.7v5.5c0,0.2-0.1,0.3-0.2,0.4c-0.1,0.1-0.3,0.2-0.4,0.2h-0.9
					c-0.2,0-0.3-0.1-0.4-0.2c-0.1-0.1-0.2-0.3-0.2-0.4V189c0-0.2,0.1-0.3,0.2-0.4c0.1-0.1,0.3-0.2,0.4-0.2H476z M472.2,195.5h3.6
					c1,0,1.8-0.2,2.4-0.6c0.6-0.4,0.9-1.1,0.9-2c0-0.9-0.3-1.6-0.9-2c-0.6-0.4-1.4-0.6-2.4-0.6h-3.6V195.5z"/>
				<path class="st7" d="M485.8,194.1c0-0.8,0.2-1.6,0.4-2.3c0.3-0.7,0.7-1.3,1.2-1.9c0.5-0.5,1.1-0.9,1.9-1.3
					c0.7-0.3,1.6-0.5,2.5-0.5c0.9,0,1.8,0.2,2.5,0.5c0.7,0.3,1.4,0.7,1.9,1.3c0.5,0.5,0.9,1.1,1.2,1.9c0.3,0.7,0.4,1.5,0.4,2.3
					c0,1.3,0,2.6,0,3.8c0,0.8-0.2,1.6-0.4,2.3c-0.3,0.7-0.7,1.3-1.2,1.9c-0.5,0.5-1.1,0.9-1.8,1.2c-0.7,0.3-1.6,0.5-2.5,0.5
					c-1,0-1.8-0.2-2.5-0.5c-0.7-0.3-1.3-0.7-1.8-1.2c-0.5-0.5-0.9-1.2-1.2-1.9c-0.3-0.7-0.4-1.5-0.4-2.3
					C485.8,196.6,485.8,195.4,485.8,194.1z M495.7,194.2c0-0.7-0.1-1.3-0.3-1.8c-0.2-0.5-0.5-0.9-0.8-1.3c-0.3-0.3-0.8-0.6-1.2-0.7
					c-0.5-0.2-1-0.2-1.5-0.2c-0.6,0-1.1,0.1-1.5,0.2c-0.5,0.2-0.9,0.4-1.2,0.7c-0.3,0.3-0.6,0.7-0.8,1.3c-0.2,0.5-0.3,1.1-0.3,1.8
					c0,0.6,0,1.2,0,1.8c0,0.6,0,1.2,0,1.8c0,0.7,0.1,1.3,0.3,1.8c0.2,0.5,0.5,0.9,0.8,1.3c0.3,0.3,0.8,0.6,1.2,0.7
					c0.5,0.2,1,0.2,1.5,0.2c0.6,0,1.1-0.1,1.5-0.2c0.5-0.2,0.9-0.4,1.2-0.7c0.3-0.3,0.6-0.7,0.8-1.3c0.2-0.5,0.3-1.1,0.3-1.8
					c0-0.6,0-1.2,0-1.8C495.7,195.4,495.7,194.8,495.7,194.2z"/>
				<path class="st7" d="M508.8,188.5c0.7,0,1.4,0.1,2,0.3c0.6,0.2,1.2,0.4,1.6,0.8c0.5,0.4,0.9,0.8,1.1,1.4c0.3,0.6,0.4,1.2,0.4,2
					c0,1.2-0.3,2.1-0.9,2.8c-0.6,0.7-1.3,1.2-2.2,1.5l3.3,5.7c0,0.1,0.1,0.2,0.1,0.2c0,0.1,0,0.2-0.1,0.3c-0.1,0.1-0.2,0.1-0.3,0.1
					h-0.9c-0.3,0-0.5-0.1-0.6-0.2c-0.1-0.1-0.2-0.3-0.3-0.4l-3.1-5.5h-3.7v5.5c0,0.2-0.1,0.3-0.2,0.4c-0.1,0.1-0.3,0.2-0.4,0.2h-0.9
					c-0.2,0-0.3-0.1-0.4-0.2c-0.1-0.1-0.2-0.3-0.2-0.4V189c0-0.2,0.1-0.3,0.2-0.4c0.1-0.1,0.3-0.2,0.4-0.2H508.8z M505.1,195.5h3.6
					c1,0,1.8-0.2,2.4-0.6c0.6-0.4,0.9-1.1,0.9-2c0-0.9-0.3-1.6-0.9-2c-0.6-0.4-1.4-0.6-2.4-0.6h-3.6V195.5z"/>
			</g>
		</g>
	</g>
</g>
</svg>
