<?xml version="1.0" encoding="utf-8"?>
<!-- Generator: Adobe Illustrator 21.0.0, SVG Export Plug-In . SVG Version: 6.00 Build 0)  -->
<svg version="1.1" id="Camada_1" xmlns="http://www.w3.org/2000/svg" xmlns:xlink="http://www.w3.org/1999/xlink" x="0px" y="0px"
	 viewBox="0 0 512 512" style="enable-background:new 0 0 512 512;" xml:space="preserve">
<style type="text/css">
	.st0{fill:#16A085;}
</style>
<g id="Page-1">
	<g id="_x30_37---Train">
		<path id="Shape" class="st0" d="M9,503.2c3,5.4,8.7,8.8,14.9,8.8h72.5c7.1,0,13.5-4.4,16-11.1l2.2-6h282.6l2.2,6
			c2.5,6.7,8.9,11.1,16,11.1H488c6.2,0,11.9-3.3,15-8.8s2.8-12.1-0.5-17.3L400.3,322.3c16.7-14.5,26.4-35.6,26.4-57.8v-128
			C426.6,61.2,365.5,0.1,290.1,0h-68.3C146.5,0.1,85.4,61.2,85.3,136.5v128c0,22.2,9.6,43.3,26.4,57.8L9.5,485.9
			C6.2,491.1,6,497.8,9,503.2z M121.1,477.9l6.4-17.1h257l6.4,17.1H121.1z M172.3,341.3h167.4l6.4,17.1H165.9L172.3,341.3z
			 M159.5,375.5h193l6.4,17.1H153.1L159.5,375.5z M146.7,409.6h218.6l12.8,34.1H133.9L146.7,409.6z M488,494.9h-72.5l-57.8-154
			c10-1,19.7-4,28.5-8.8L488,494.9z M349.9,324.3h-25.6c0.4-37.1,6.4-95.9,85.3-132.1v72.4C409.6,297.5,382.8,324.2,349.9,324.3z
			 M221.9,17.1h68.3c66,0.1,119.4,53.5,119.5,119.5v37c-95.2,40.1-101.9,110.5-102.4,150.7H204.8c-0.5-40.2-7.2-110.7-102.4-150.7
			v-37C102.5,70.6,155.9,17.1,221.9,17.1z M102.4,264.5v-72.4c78.9,36.2,84.9,95.1,85.3,132.1h-25.6
			C129.2,324.2,102.4,297.5,102.4,264.5z M125.7,332.1c8.8,4.8,18.5,7.8,28.5,8.8l-57.8,154H24L125.7,332.1z"/>
		<path id="Shape_1_" class="st0" d="M128,281.6h17.1c4.7,0,8.5-3.8,8.5-8.5s-3.8-8.5-8.5-8.5H128c-4.7,0-8.5,3.8-8.5,8.5
			S123.3,281.6,128,281.6z"/>
		<path id="Shape_2_" class="st0" d="M384,264.5h-17.1c-4.7,0-8.5,3.8-8.5,8.5s3.8,8.5,8.5,8.5H384c4.7,0,8.5-3.8,8.5-8.5
			S388.7,264.5,384,264.5z"/>
		<path id="Shape_3_" class="st0" d="M136.9,161.8c11.5,6.3,22.4,13.7,32.5,22.1c3,2.5,6.9,3.9,10.8,3.9h151.6
			c3.9,0,7.8-1.4,10.8-3.9c10.1-8.4,21-15.7,32.5-22.1c5.4-3,8.8-8.7,8.9-14.9v-10.3c-0.1-51.8-42.1-93.8-93.9-93.9h-68.3
			c-51.8,0.1-93.8,42.1-93.9,93.9v10.3C128,153.1,131.4,158.8,136.9,161.8z M366.9,136.5l-0.1,10.3c-12.4,6.8-24.2,14.8-35.1,23.8
			h-67.3V59.7h25.6C332.5,59.8,366.9,94.1,366.9,136.5z M145.1,136.5c0-42.4,34.4-76.8,76.8-76.8h25.6v110.9h-67.2
			c-11-9-22.8-17-35.2-23.8V136.5z"/>
		<path id="Shape_4_" class="st0" d="M273.1,213.3h-34.1c-4.7,0-8.5,3.8-8.5,8.5c0,4.7,3.8,8.5,8.5,8.5h34.1c4.7,0,8.5-3.8,8.5-8.5
			C281.6,217.2,277.8,213.3,273.1,213.3z"/>
		<path id="Shape_5_" class="st0" d="M273.1,247.5h-34.1c-4.7,0-8.5,3.8-8.5,8.5c0,4.7,3.8,8.5,8.5,8.5h34.1c4.7,0,8.5-3.8,8.5-8.5
			C281.6,251.3,277.8,247.5,273.1,247.5z"/>
		<path id="Shape_6_" class="st0" d="M273.1,281.6h-34.1c-4.7,0-8.5,3.8-8.5,8.5c0,4.7,3.8,8.5,8.5,8.5h34.1c4.7,0,8.5-3.8,8.5-8.5
			C281.6,285.4,277.8,281.6,273.1,281.6z"/>
	</g>
</g>
</svg>
