<?xml version="1.0" encoding="utf-8"?>
<!-- Generator: Adobe Illustrator 21.0.0, SVG Export Plug-In . SVG Version: 6.00 Build 0)  -->
<svg version="1.1" id="Modo_de_isolamento" xmlns="http://www.w3.org/2000/svg" xmlns:xlink="http://www.w3.org/1999/xlink" x="0px"
	 y="0px" viewBox="0 0 512 512" style="enable-background:new 0 0 512 512;" xml:space="preserve">
<style type="text/css">
	.st0{fill:#16A085;}
</style>
<g id="Bussiness-Coin-Money-Home-Global">
	<path class="st0" d="M486.6,222.2L272.1,27.8c-9.1-8.3-23.1-8.3-32.2,0l-34.8,31.5c1.8,4.3,3.4,8.7,4.6,13.3
		c0.2,1.2,0.3,2.4,0.5,3.6l40.4-36.6c3-2.8,7.7-2.8,10.7,0l214.6,194.4c2.5,2.2,3.3,5.7,2.1,8.8c-1.2,3.1-4.2,5.2-7.5,5.1H464
		c-13.2,0-24,10.8-24,24v200c0,4.4-3.6,8-8,8H328c-4.4,0-8-3.6-8-8v-56c0-13.2-10.8-24-24-24h-80c-13.2,0-24,10.8-24,24v56
		c0,4.4-3.6,8-8,8H80c-4.4,0-8-3.6-8-8V272c0-13.2-10.8-24-24-24h-6.5c-4.4,0-8-3.5-8.1-7.9c0-2.3,0.9-4.4,2.6-6L213.9,72.9
		c-5.4-1.9-3.6-10.8-8.8-13.6L25.4,222.2c-9.8,8.9-10.5,24.1-1.6,33.9c4.6,5,11,7.9,17.8,7.9H48c4.4,0,8,3.6,8,8v200
		c0,13.2,10.8,24,24,24h104c13.2,0,24-10.8,24-24v-56c0-4.4,3.6-8,8-8h80c4.4,0,8,3.6,8,8v56c0,13.2,10.8,24,24,24h104
		c13.2,0,24-10.8,24-24V272c0-4.4,3.6-8,8-8h6.5c13.3,0,24-10.7,24-24C494.5,233.2,491.6,226.8,486.6,222.2z"/>
	<path class="st0" d="M256,130.3c-66.7,0-120.7,54-120.7,120.7s54,120.7,120.7,120.7s120.7-54,120.7-120.7
		C376.7,184.4,322.6,130.3,256,130.3z M256,353.1c-56.4,0-102.1-45.7-102.1-102.1S199.6,148.9,256,148.9S358.1,194.6,358.1,251
		C358.1,307.4,312.4,353.1,256,353.1z"/>
	<path class="st0" d="M293.1,278.9c-0.1,16.9-11.5,31.6-27.9,35.8v10.6h-18.6v-10.6c-16.4-4.2-27.8-19-27.9-35.8h18.6
		c0,10.3,8.3,18.6,18.6,18.6s18.6-8.3,18.6-18.6c0-10.3-8.3-18.6-18.6-18.6c-20.5,0-37.1-16.6-37.1-37c0-16.9,11.4-31.7,27.8-36
		v-10.6h18.6v10.6c16.4,4.2,27.8,19,27.9,35.8h-18.6c0-10.3-8.3-18.6-18.6-18.6s-18.6,8.3-18.6,18.6c0,10.3,8.3,18.6,18.6,18.6
		C276.5,241.7,293.1,258.3,293.1,278.9z"/>
</g>
</svg>
