<?xml version="1.0" encoding="utf-8"?>
<!-- Generator: Adobe Illustrator 21.0.0, SVG Export Plug-In . SVG Version: 6.00 Build 0)  -->
<svg version="1.1" id="Camada_1" xmlns="http://www.w3.org/2000/svg" xmlns:xlink="http://www.w3.org/1999/xlink" x="0px" y="0px"
	 viewBox="0 0 24 24" style="enable-background:new 0 0 24 24;" xml:space="preserve">
<style type="text/css">
	.st0{fill:#16A085;}
</style>
<path class="st0" d="M5,6h18v12H5V6 M14,9c1.7,0,3,1.3,3,3s-1.3,3-3,3s-3-1.3-3-3S12.3,9,14,9 M9,8c0,1.1-0.9,2-2,2v4
	c1.1,0,2,0.9,2,2h10c0-1.1,0.9-2,2-2v-4c-1.1,0-2-0.9-2-2H9 M1,10h2v10h16v2H1V10z"/>
</svg>
