<?xml version="1.0" encoding="utf-8"?>
<!-- Generator: Adobe Illustrator 21.0.0, SVG Export Plug-In . SVG Version: 6.00 Build 0)  -->
<svg version="1.1" id="Camada_1" xmlns="http://www.w3.org/2000/svg" xmlns:xlink="http://www.w3.org/1999/xlink" x="0px" y="0px"
	 viewBox="0 0 512 512" style="enable-background:new 0 0 512 512;" xml:space="preserve">
<style type="text/css">
	.st0{fill:#16A085;}
</style>
<g id="Bussiness-Coin-Money-Home-Global">
	<path class="st0" d="M486.6,222.2L272.1,27.8c-9.1-8.3-23.1-8.3-32.2,0l-52.7,47.8C171.5,29.6,121.6,5,75.6,20.7S5,86.3,20.7,132.3
		c7.8,22.9,24.8,41.6,46.8,51.7l-42.2,38.2c-9.8,8.9-10.5,24.1-1.6,33.9c4.6,5,11,7.9,17.8,7.9H48c4.4,0,8,3.6,8,8v200
		c0,13.2,10.8,24,24,24h104c13.2,0,24-10.8,24-24v-56c0-4.4,3.6-8,8-8h80c4.4,0,8,3.6,8,8v56c0,13.2,10.8,24,24,24h104
		c13.2,0,24-10.8,24-24V272c0-4.4,3.6-8,8-8h6.5c13.3,0,24-10.7,24-24C494.5,233.2,491.6,226.8,486.6,222.2z M175.5,96h-31.7
		c-0.3-8.2-1.2-16.3-2.6-24.4c6.9-3.2,13.4-7.3,19.2-12.2C168.8,70,174,82.6,175.5,96z M175.5,112c-1.5,13.4-6.7,26-15,36.6
		c-5.8-4.9-12.3-9-19.2-12.2c1.4-8.1,2.2-16.2,2.6-24.4H175.5z M149.2,48c-3.6,2.9-7.4,5.5-11.5,7.6c-1.8-6.4-4.2-12.6-7.1-18.5
		C137.3,39.8,143.6,43.5,149.2,48z M137.7,152.4c4.1,2.1,7.9,4.7,11.5,7.6c-5.6,4.5-11.9,8.2-18.6,10.9
		C133.5,165,135.9,158.8,137.7,152.4z M104,32c6.1,0,13.8,10.8,18.9,29.4c-6.2,1.7-12.5,2.5-18.9,2.6c-6.4,0-12.7-0.9-18.9-2.6
		C90.2,42.8,97.9,32,104,32z M81.9,77.1C89.1,79,96.5,80,104,80c7.5,0,14.9-1,22.1-2.9c0.9,6.3,1.5,12.6,1.8,18.9H80.2
		C80.4,89.7,81,83.4,81.9,77.1z M127.8,112c-0.2,6.3-0.8,12.6-1.8,18.9c-14.5-3.8-29.7-3.8-44.2,0c-0.9-6.3-1.5-12.6-1.8-18.9H127.8
		z M122.9,146.6c-5,18.6-12.8,29.4-18.9,29.4s-13.8-10.8-18.9-29.4C97.5,143.1,110.5,143.1,122.9,146.6z M77.4,37.1
		c-3,5.9-5.4,12.1-7.1,18.5c-4.1-2.1-7.9-4.7-11.5-7.6C64.4,43.5,70.7,39.8,77.4,37.1z M47.5,59.4c5.8,4.9,12.3,9,19.2,12.2
		c-1.4,8.1-2.2,16.2-2.6,24.4H32.5C34,82.6,39.2,70,47.5,59.4z M32.5,112h31.7c0.3,8.2,1.2,16.3,2.6,24.4
		c-6.9,3.2-13.4,7.3-19.2,12.2C39.2,138,34,125.4,32.5,112z M58.8,160c3.6-2.9,7.4-5.5,11.5-7.6c1.8,6.4,4.2,12.6,7.1,18.5
		C70.7,168.2,64.4,164.5,58.8,160z M478,242.9c-1.2,3.1-4.2,5.2-7.5,5.1H464c-13.2,0-24,10.8-24,24v200c0,4.4-3.6,8-8,8H328
		c-4.4,0-8-3.6-8-8v-56c0-13.2-10.8-24-24-24h-80c-13.2,0-24,10.8-24,24v56c0,4.4-3.6,8-8,8H80c-4.4,0-8-3.6-8-8V272
		c0-13.2-10.8-24-24-24h-6.5c-4.4,0-8-3.5-8.1-7.9c0-2.3,0.9-4.4,2.6-6l48.8-44.2c47.3,10.7,94.3-19,105-66.3
		c1.5-6.4,2.2-13,2.2-19.6c0-3.5-0.2-7.1-0.7-10.6l59.4-53.8c3-2.8,7.7-2.8,10.7,0l214.6,194.4C478.4,236.3,479.2,239.8,478,242.9z"
		/>
	<path class="st0" d="M256,152c-57.4,0-104,46.6-104,104s46.6,104,104,104s104-46.6,104-104C359.9,198.6,313.4,152.1,256,152z
		 M256,344c-48.6,0-88-39.4-88-88s39.4-88,88-88s88,39.4,88,88C344,304.6,304.6,344,256,344z"/>
	<path class="st0" d="M288,280c0,14.6-9.9,27.2-24,30.9v9.1h-16v-9.1c-14.1-3.6-24-16.3-24-30.9h16c0,8.8,7.2,16,16,16
		c8.8,0,16-7.2,16-16s-7.2-16-16-16c-17.6,0-32-14.3-32-31.9c0-14.6,9.9-27.3,24-31V192h16v9.1c14.1,3.6,24,16.3,24,30.9h-16
		c0-8.8-7.2-16-16-16c-8.8,0-16,7.2-16,16s7.2,16,16,16C273.7,248,288,262.3,288,280z"/>
	<path class="st0" d="M408,96c4.4,0,8,3.6,8,8s3.6,8,8,8s8-3.6,8-8c0-13.3-10.7-24-24-24c-4.4,0-8,3.6-8,8S403.6,96,408,96z"/>
	<path class="st0" d="M408,64c22.1,0,40,17.9,40,40c0,4.4,3.6,8,8,8s8-3.6,8-8c0-30.9-25.1-56-56-56c-4.4,0-8,3.6-8,8
		S403.6,64,408,64z"/>
	<path class="st0" d="M408,32c39.7,0,72,32.3,72,72c0,4.4,3.6,8,8,8s8-3.6,8-8c-0.1-48.6-39.4-87.9-88-88c-4.4,0-8,3.6-8,8
		S403.6,32,408,32z"/>
</g>
</svg>
