<?xml version="1.0" encoding="utf-8"?>
<!-- Generator: Adobe Illustrator 21.0.0, SVG Export Plug-In . SVG Version: 6.00 Build 0)  -->
<svg version="1.1" id="Modo_de_isolamento" xmlns="http://www.w3.org/2000/svg" xmlns:xlink="http://www.w3.org/1999/xlink" x="0px"
	 y="0px" viewBox="0 0 512 512" style="enable-background:new 0 0 512 512;" xml:space="preserve">
<style type="text/css">
	.st0{fill:#16A085;}
</style>
<path class="st0" d="M256,27.3C129.7,27.3,27.3,129.7,27.3,256S129.7,484.7,256,484.7S484.7,382.3,484.7,256
	C484.6,129.7,382.3,27.4,256,27.3z M256,449.5c-106.9,0-193.5-86.6-193.5-193.5S149.1,62.5,256,62.5S449.5,149.1,449.5,256
	C449.5,362.9,362.9,449.5,256,449.5z"/>
<path class="st0" d="M326.4,308.8c-0.1,32-21.8,59.9-52.8,67.9v20.1h-35.2v-20.1c-31-8-52.7-35.9-52.8-67.9h35.2
	c0,19.4,15.8,35.2,35.2,35.2c19.4,0,35.2-15.8,35.2-35.2c0-19.4-15.8-35.2-35.2-35.2c-38.8,0-70.3-31.4-70.3-70.2
	c0-32.1,21.7-60.1,52.7-68.1v-20.1h35.2v20.1c31,8,52.7,35.9,52.8,67.9h-35.2c0-19.4-15.8-35.2-35.2-35.2
	c-19.4,0-35.2,15.8-35.2,35.2s15.8,35.2,35.2,35.2C294.9,238.4,326.4,269.9,326.4,308.8z"/>
</svg>
