<?xml version="1.0" encoding="utf-8"?>
<!-- Generator: Adobe Illustrator 21.0.0, SVG Export Plug-In . SVG Version: 6.00 Build 0)  -->
<svg version="1.1" id="Capa_1" xmlns="http://www.w3.org/2000/svg" xmlns:xlink="http://www.w3.org/1999/xlink" x="0px" y="0px"
	 viewBox="0 0 174.2 174.2" style="enable-background:new 0 0 174.2 174.2;" xml:space="preserve">
<style type="text/css">
	.st0{fill:#16A085;}
</style>
<g>
	<path class="st0" d="M34.4,0C15.4,0,0,15.4,0,34.4c0,19,15.4,34.4,34.4,34.4s34.4-15.4,34.4-34.4C68.7,15.4,53.3,0,34.4,0z"/>
	<g>
		<path class="st0" d="M139.9,68.7c-18.9,0-34.4-15.4-34.4-34.4c0-18.9,15.4-34.4,34.4-34.4s34.4,15.4,34.4,34.4
			C174.2,53.3,158.8,68.7,139.9,68.7z M139.9,14.9c-10.7,0-19.4,8.7-19.4,19.4c0,10.7,8.7,19.4,19.4,19.4s19.4-8.7,19.4-19.4
			C159.3,23.7,150.6,14.9,139.9,14.9z"/>
	</g>
	<g>
		<path class="st0" d="M34.4,174.2C15.4,174.2,0,158.8,0,139.9c0-18.9,15.4-34.4,34.4-34.4s34.4,15.4,34.4,34.4
			C68.7,158.8,53.3,174.2,34.4,174.2z M34.4,120.4c-10.7,0-19.4,8.7-19.4,19.4c0,10.7,8.7,19.4,19.4,19.4s19.4-8.7,19.4-19.4
			C53.8,129.2,45.1,120.4,34.4,120.4z"/>
	</g>
	<path class="st0" d="M139.9,105.5c-18.9,0-34.4,15.4-34.4,34.4c0,18.9,15.4,34.4,34.4,34.4s34.4-15.4,34.4-34.4
		C174.2,120.9,158.8,105.5,139.9,105.5z"/>
</g>
</svg>
