<?xml version="1.0" encoding="utf-8"?>
<!-- Generator: Adobe Illustrator 21.0.0, SVG Export Plug-In . SVG Version: 6.00 Build 0)  -->
<svg version="1.1" id="Layer_1" xmlns="http://www.w3.org/2000/svg" xmlns:xlink="http://www.w3.org/1999/xlink" x="0px" y="0px"
	 viewBox="0 0 512 512" style="enable-background:new 0 0 512 512;" xml:space="preserve">
<style type="text/css">
	.st0{fill:#16A085;}
</style>
<g>
	<path class="st0" d="M159.4,0c-4.1,0-7.5,3.4-7.5,7.5v105.1H132V7.5c0-4.1-3.4-7.5-7.5-7.5S117,3.4,117,7.5v105.1H97.6V7.5
		c0-4.1-3.4-7.5-7.5-7.5s-7.5,3.4-7.5,7.5v105.1H62.7V7.5c0-4.1-3.4-7.5-7.5-7.5s-7.5,3.4-7.5,7.5V162c0,16,8.6,30.8,22.4,38.7
		l12.4,7.1v46c-5,5.9-7.8,13.4-7.8,21.2v7.7c0,4.7,1.6,8.9,4.3,12.3c-2.7,3.4-4.3,7.7-4.3,12.3v117.4c0,4.1,3.4,7.5,7.5,7.5
		s7.5-3.4,7.5-7.5V307.4c0-2.7,2.2-4.8,4.8-4.8H120c2.7,0,4.8,2.2,4.8,4.8v172.1c0,9.7-7.9,17.5-17.5,17.5s-17.5-7.9-17.5-17.5
		v-19.8c0-4.1-3.4-7.5-7.5-7.5s-7.5,3.4-7.5,7.5v19.8c0,17.9,14.6,32.5,32.5,32.5s32.5-14.6,32.5-32.5V307.4c0-4.7-1.6-8.9-4.3-12.3
		c2.7-3.4,4.3-7.7,4.3-12.3V275c0-7.7-2.8-15.3-7.8-21.1v-46.1l12.4-7.1c13.8-7.9,22.4-22.8,22.4-38.7l0-154.5
		C166.9,3.4,163.5,0,159.4,0L159.4,0z M151.9,162c0,10.6-5.7,20.4-14.9,25.7l-16.2,9.3c-2.3,1.3-3.8,3.8-3.8,6.5v53.4
		c0,2.1,0.8,4,2.3,5.4c3.5,3.3,5.5,7.9,5.5,12.7v7.7c0,2.7-2.2,4.8-4.8,4.8H94.6c-2.7,0-4.8-2.2-4.8-4.8V275c0-4.9,1.9-9.4,5.5-12.7
		c1.5-1.4,2.3-3.4,2.3-5.5v-53.3c0-2.7-1.4-5.2-3.8-6.5l-16.2-9.3c-9.2-5.3-14.9-15.1-14.9-25.7v-34.4h89.1L151.9,162L151.9,162z"/>
	<path class="st0" d="M302.9,125.8c0,15.3-3.4,27.2-9.4,33.5c-5.8,6-14.7,7.3-21.1,7.3s-15.3-1.3-21.1-7.3
		c-6.1-6.3-9.4-18.2-9.4-33.5c0-4.1-3.4-7.5-7.5-7.5c-4.1,0-7.5,3.4-7.5,7.5c0,19.4,4.7,34.6,13.6,43.9c9.5,9.8,22.6,11.9,31.9,11.9
		c9.3,0,22.4-2.1,31.9-11.9c8.9-9.3,13.6-24.4,13.6-43.9c0-4.1-3.4-7.5-7.5-7.5S302.9,121.7,302.9,125.8z"/>
	<path class="st0" d="M272.4,0c-20.4,0-39.8,15.2-54.7,42.7c-13,24.1-20.8,55.2-20.8,83.1c0,42.7,18.4,72.3,50.9,82.2v45.9
		c-5,5.9-7.8,13.4-7.8,21.2v7.7c0,4.7,1.6,8.9,4.3,12.3c-2.7,3.4-4.3,7.7-4.3,12.3v172.1c0,17.9,14.6,32.5,32.5,32.5
		c17.9,0,32.5-14.6,32.5-32.5V368.3c0-4.1-3.4-7.5-7.5-7.5s-7.5,3.4-7.5,7.5v111.2c0,9.7-7.9,17.5-17.5,17.5
		c-9.7,0-17.5-7.9-17.5-17.5V307.4c0-2.7,2.2-4.8,4.8-4.8h25.4c2.7,0,4.8,2.2,4.8,4.8v26.3c0,4.1,3.4,7.5,7.5,7.5s7.5-3.4,7.5-7.5
		v-26.3c0-4.7-1.6-8.9-4.3-12.3c2.7-3.4,4.3-7.7,4.3-12.3V275c0-7.7-2.8-15.3-7.8-21.1V208c32.4-9.9,50.8-39.5,50.8-82.2
		c0-27.9-7.8-58.9-20.8-83.1C312.2,15.2,292.8,0,272.4,0L272.4,0z M288,194.9c-3.4,0.8-5.9,3.8-5.9,7.3v54.7c0,2.1,0.8,4,2.3,5.4
		c3.5,3.3,5.5,7.9,5.5,12.7v7.7c0,2.7-2.2,4.8-4.8,4.8h-25.4c-2.7,0-4.8-2.2-4.8-4.8V275c0-4.9,1.9-9.4,5.5-12.7
		c1.5-1.4,2.3-3.4,2.3-5.5v-54.6c0-3.5-2.4-6.6-5.9-7.3c-29-6.5-45-31-45-69.1c0-25.5,7.1-53.9,19-75.9C242.8,27.7,258,15,272.4,15
		s29.5,12.7,41.5,34.9c11.9,22.1,19,50.4,19,75.9C332.9,163.9,316.9,188.5,288,194.9z"/>
	<path class="st0" d="M464.3,315.1c0-7.7-2.8-15.3-7.8-21.1V107.5c0-4.1-3.4-7.5-7.5-7.5c-4.1,0-7.5,3.4-7.5,7.5v189.4
		c0,2.1,0.8,4,2.3,5.4c3.5,3.3,5.5,7.8,5.5,12.7v7.7c0,2.7-2.2,4.8-4.8,4.8h-25.4c-2.7,0-4.8-2.2-4.8-4.8v-7.7
		c0-4.9,1.9-9.4,5.5-12.7c1.5-1.4,2.3-3.4,2.3-5.5v-35.3c0-4.1-3.4-7.5-7.5-7.5H397V77.8c0-28.2,18.2-52.5,44.5-60.8v56.3
		c0,4.1,3.4,7.5,7.5,7.5c4.1,0,7.5-3.4,7.5-7.5V7.5c0-2.2-1-4.3-2.7-5.7c-1.7-1.4-3.9-2-6.1-1.7C409.6,6.5,382,39.2,382,77.8v183.7
		c0,4.1,3.4,7.5,7.5,7.5h17.6v24.9c-5,5.9-7.8,13.4-7.8,21.2v7.7c0,4.7,1.6,8.9,4.3,12.3c-2.7,3.4-4.3,7.7-4.3,12.3v132.1
		c0,17.9,14.6,32.5,32.5,32.5s32.5-14.6,32.5-32.5V347.4c0-4.7-1.6-8.9-4.3-12.3c2.7-3.4,4.3-7.7,4.3-12.3L464.3,315.1L464.3,315.1z
		 M449.3,479.5c0,9.7-7.9,17.5-17.5,17.5c-9.7,0-17.5-7.9-17.5-17.5V347.4c0-2.7,2.2-4.8,4.8-4.8h25.4c2.7,0,4.8,2.2,4.8,4.8
		L449.3,479.5L449.3,479.5z"/>
</g>
</svg>
