<?xml version="1.0" encoding="utf-8"?>
<!-- Generator: Adobe Illustrator 21.0.0, SVG Export Plug-In . SVG Version: 6.00 Build 0)  -->
<svg version="1.1" id="Camada_1" xmlns="http://www.w3.org/2000/svg" xmlns:xlink="http://www.w3.org/1999/xlink" x="0px" y="0px"
	 viewBox="0 0 24 24" style="enable-background:new 0 0 24 24;" xml:space="preserve">
<style type="text/css">
	.st0{fill:#FFFFFF;}
</style>
<path class="st0" d="M4.3,17.9L18.2,3.8l1.4,1.4L5.8,19.3L4.3,17.9 M11.2,3.5c3.3,0,6,2.7,6,6c0,2.2-1.2,4.2-3,5.2v1.8
	c0,0.6-0.4,1-1,1h-4c-0.6,0-1-0.4-1-1v-1.8c-1.8-1-3-3-3-5.2C5.2,6.2,7.9,3.5,11.2,3.5 M13.2,18.5v1c0,0.6-0.4,1-1,1h-2
	c-0.6,0-1-0.4-1-1v-1H13.2 M10.2,15.5h2v-2.1c1.7-0.4,3-2,3-3.9c0-2.2-1.8-4-4-4s-4,1.8-4,4c0,1.9,1.3,3.4,3,3.9V15.5z"/>
</svg>
