<?xml version="1.0" encoding="utf-8"?>
<!-- Generator: Adobe Illustrator 21.0.0, SVG Export Plug-In . SVG Version: 6.00 Build 0)  -->
<svg version="1.1" id="Camada_1" xmlns="http://www.w3.org/2000/svg" xmlns:xlink="http://www.w3.org/1999/xlink" x="0px" y="0px"
	 viewBox="0 0 115.5 24" style="enable-background:new 0 0 115.5 24;" xml:space="preserve">
<style type="text/css">
	.st0{fill:#FFFFFF;}
</style>
<g>
	<path class="st0" d="M7.8,5.7h18v12h-18V5.7 M16.8,8.7c1.7,0,3,1.3,3,3s-1.3,3-3,3s-3-1.3-3-3S15.2,8.7,16.8,8.7 M11.8,7.7
		c0,1.1-0.9,2-2,2v4c1.1,0,2,0.9,2,2h10c0-1.1,0.9-2,2-2v-4c-1.1,0-2-0.9-2-2H11.8z"/>
	<g>
		<path class="st0" d="M34.8,15.8c-0.6,0-1.2-0.1-1.6-0.3c-0.5-0.2-0.8-0.5-1-0.8c-0.2-0.3-0.4-0.7-0.4-1c0-0.1,0-0.1,0.1-0.2
			c0,0,0.1-0.1,0.2-0.1h0.2c0.1,0,0.1,0,0.2,0.1c0,0,0.1,0.1,0.1,0.2c0,0.2,0.1,0.4,0.3,0.7s0.4,0.4,0.7,0.6
			c0.3,0.1,0.8,0.2,1.3,0.2c0.8,0,1.4-0.1,1.7-0.4c0.4-0.3,0.5-0.7,0.5-1.1c0-0.3-0.1-0.6-0.3-0.8c-0.2-0.2-0.5-0.4-0.9-0.5
			c-0.4-0.2-0.9-0.3-1.5-0.5c-0.6-0.2-1-0.4-1.4-0.6c-0.4-0.2-0.6-0.4-0.8-0.7C32,10.1,32,9.7,32,9.3c0-0.4,0.1-0.8,0.3-1.1
			c0.2-0.3,0.5-0.6,0.9-0.8s0.9-0.3,1.5-0.3c0.5,0,0.9,0.1,1.2,0.2c0.4,0.1,0.6,0.3,0.9,0.5c0.2,0.2,0.4,0.4,0.5,0.7
			s0.2,0.5,0.2,0.7c0,0.1,0,0.1-0.1,0.2c0,0.1-0.1,0.1-0.2,0.1h-0.2c0,0-0.1,0-0.2,0c-0.1,0-0.1-0.1-0.1-0.2c0-0.4-0.3-0.7-0.6-1
			c-0.4-0.3-0.9-0.4-1.4-0.4c-0.6,0-1.1,0.1-1.5,0.3c-0.4,0.2-0.6,0.6-0.6,1.1c0,0.3,0.1,0.6,0.3,0.8c0.2,0.2,0.4,0.4,0.8,0.5
			c0.4,0.2,0.8,0.3,1.4,0.5c0.6,0.2,1.1,0.4,1.5,0.6c0.4,0.2,0.7,0.4,0.9,0.7s0.3,0.6,0.3,1.1c0,0.5-0.1,0.9-0.4,1.2
			c-0.2,0.3-0.6,0.6-1,0.8C36,15.7,35.4,15.8,34.8,15.8z"/>
		<path class="st0" d="M39.8,15.7c-0.1,0-0.1,0-0.2-0.1c0,0-0.1-0.1-0.1-0.2V7.5c0-0.1,0-0.2,0.1-0.2c0,0,0.1-0.1,0.2-0.1h4.7
			c0.1,0,0.2,0,0.2,0.1c0,0,0.1,0.1,0.1,0.2v0.2c0,0.1,0,0.1-0.1,0.2c0,0-0.1,0.1-0.2,0.1h-4.2V11h3.9c0.1,0,0.2,0,0.2,0.1
			c0,0,0.1,0.1,0.1,0.2v0.2c0,0.1,0,0.1-0.1,0.2c0,0-0.1,0.1-0.2,0.1h-3.9v3.2h4.3c0.1,0,0.2,0,0.2,0.1s0.1,0.1,0.1,0.2v0.2
			c0,0.1,0,0.1-0.1,0.2s-0.1,0.1-0.2,0.1H39.8z"/>
		<path class="st0" d="M46.9,15.7c-0.1,0-0.1,0-0.2-0.1c0,0-0.1-0.1-0.1-0.2V7.5c0-0.1,0-0.2,0.1-0.2c0,0,0.1-0.1,0.2-0.1h0.3
			c0.1,0,0.1,0,0.2,0.1c0,0,0.1,0.1,0.1,0.1l4.4,6.8V7.5c0-0.1,0-0.2,0.1-0.2c0,0,0.1-0.1,0.2-0.1h0.2c0.1,0,0.2,0,0.2,0.1
			c0,0,0.1,0.1,0.1,0.2v7.8c0,0.1,0,0.1-0.1,0.2c0,0.1-0.1,0.1-0.2,0.1h-0.3c-0.1,0-0.1,0-0.2-0.1s-0.1-0.1-0.1-0.1l-4.4-6.7v6.6
			c0,0.1,0,0.1-0.1,0.2s-0.1,0.1-0.2,0.1H46.9z"/>
		<path class="st0" d="M54.9,15.7c-0.1,0-0.2,0-0.2-0.1c-0.1-0.1-0.1-0.1-0.1-0.2V7.5c0-0.1,0-0.2,0.1-0.2c0.1-0.1,0.1-0.1,0.2-0.1
			h5.5c0.1,0,0.2,0,0.2,0.1c0.1,0.1,0.1,0.1,0.1,0.2v1.2c0,0.1,0,0.2-0.1,0.2c-0.1,0.1-0.1,0.1-0.2,0.1h-3.7v1.8h3.5
			c0.1,0,0.2,0,0.2,0.1c0.1,0.1,0.1,0.1,0.1,0.2v1.2c0,0.1,0,0.1-0.1,0.2c-0.1,0.1-0.1,0.1-0.2,0.1h-3.5v2.7c0,0.1,0,0.1-0.1,0.2
			c-0.1,0.1-0.1,0.1-0.2,0.1H54.9z"/>
		<path class="st0" d="M62.3,15.7c-0.1,0-0.2,0-0.2-0.1C62,15.5,62,15.4,62,15.4V7.5c0-0.1,0-0.2,0.1-0.2c0.1-0.1,0.1-0.1,0.2-0.1
			h1.6c0.1,0,0.2,0,0.2,0.1c0.1,0.1,0.1,0.1,0.1,0.2v7.8c0,0.1,0,0.1-0.1,0.2c-0.1,0.1-0.1,0.1-0.2,0.1H62.3z"/>
		<path class="st0" d="M66.2,15.7c-0.1,0-0.2,0-0.2-0.1c-0.1-0.1-0.1-0.1-0.1-0.2V7.5c0-0.1,0-0.2,0.1-0.2s0.1-0.1,0.2-0.1h1.3
			c0.1,0,0.2,0,0.3,0.1s0.1,0.1,0.1,0.1l2.9,4.6V7.5c0-0.1,0-0.2,0.1-0.2s0.1-0.1,0.2-0.1h1.4c0.1,0,0.2,0,0.2,0.1
			c0.1,0.1,0.1,0.1,0.1,0.2v7.8c0,0.1,0,0.2-0.1,0.2c-0.1,0.1-0.1,0.1-0.2,0.1h-1.3c-0.1,0-0.2,0-0.3-0.1c-0.1-0.1-0.1-0.1-0.1-0.1
			L67.9,11v4.4c0,0.1,0,0.1-0.1,0.2c-0.1,0.1-0.1,0.1-0.2,0.1H66.2z"/>
		<path class="st0" d="M74,15.7c-0.1,0-0.1,0-0.2-0.1c-0.1-0.1-0.1-0.1-0.1-0.2c0,0,0-0.1,0-0.1l2.8-7.7c0-0.1,0.1-0.2,0.1-0.2
			s0.2-0.1,0.3-0.1h1.8c0.1,0,0.2,0,0.3,0.1s0.1,0.1,0.2,0.2l2.8,7.7c0,0,0,0.1,0,0.1c0,0.1,0,0.1-0.1,0.2c-0.1,0.1-0.1,0.1-0.2,0.1
			h-1.5c-0.1,0-0.2,0-0.3-0.1c-0.1-0.1-0.1-0.1-0.1-0.2l-0.5-1.2h-3.2l-0.5,1.2c0,0-0.1,0.1-0.1,0.2c-0.1,0.1-0.2,0.1-0.3,0.1H74z
			 M76.8,12.4h2.2l-1.1-3.2L76.8,12.4z"/>
		<path class="st0" d="M83.4,15.7c-0.1,0-0.2,0-0.2-0.1c-0.1-0.1-0.1-0.1-0.1-0.2V7.5c0-0.1,0-0.2,0.1-0.2s0.1-0.1,0.2-0.1h1.3
			c0.1,0,0.2,0,0.3,0.1s0.1,0.1,0.1,0.1l2.9,4.6V7.5c0-0.1,0-0.2,0.1-0.2s0.1-0.1,0.2-0.1h1.4c0.1,0,0.2,0,0.2,0.1
			C90,7.4,90,7.5,90,7.5v7.8c0,0.1,0,0.2-0.1,0.2c-0.1,0.1-0.1,0.1-0.2,0.1h-1.3c-0.1,0-0.2,0-0.3-0.1c-0.1-0.1-0.1-0.1-0.1-0.1
			L85.1,11v4.4c0,0.1,0,0.1-0.1,0.2c-0.1,0.1-0.1,0.1-0.2,0.1H83.4z"/>
		<path class="st0" d="M95.1,18.3c-0.2,0-0.4,0-0.6-0.1c-0.2-0.1-0.3-0.2-0.4-0.3c-0.1-0.1-0.1-0.2,0-0.3l0.2-0.2
			c0.1-0.1,0.1-0.1,0.2-0.1c0.1,0,0.1,0.1,0.2,0.1c0.1,0,0.2,0.1,0.3,0.1c0.1,0,0.2,0,0.3-0.1c0.1-0.1,0.1-0.2,0.1-0.3
			c0-0.1,0-0.2-0.1-0.2c-0.1-0.1-0.2-0.1-0.3-0.1c-0.1,0-0.2,0-0.3,0s-0.2,0-0.2,0c-0.1,0-0.1,0-0.2-0.1l-0.2-0.2
			c0,0-0.1-0.1-0.1-0.2s0-0.1,0.1-0.2l0.2-0.6c-0.6-0.1-1.1-0.2-1.6-0.5c-0.4-0.3-0.8-0.6-1-1.1c-0.2-0.5-0.4-1-0.4-1.6
			c0-0.3,0-0.7,0-1.1s0-0.7,0-1.1c0-0.7,0.2-1.3,0.5-1.8c0.3-0.5,0.7-0.9,1.3-1.1s1.2-0.4,1.9-0.4c0.5,0,1,0.1,1.5,0.2
			c0.4,0.1,0.8,0.3,1.2,0.6s0.6,0.6,0.8,0.9c0.2,0.4,0.3,0.8,0.3,1.2c0,0.1,0,0.1-0.1,0.2c-0.1,0-0.1,0.1-0.2,0.1H97
			c-0.1,0-0.2,0-0.2-0.1c-0.1,0-0.1-0.1-0.1-0.2c-0.1-0.4-0.3-0.7-0.5-0.9c-0.3-0.2-0.6-0.2-0.9-0.2c-0.4,0-0.8,0.1-1,0.4
			c-0.3,0.2-0.4,0.6-0.4,1.2c0,0.7,0,1.3,0,2c0,0.6,0.2,1,0.4,1.2c0.3,0.2,0.6,0.4,1,0.4c0.4,0,0.7-0.1,0.9-0.2
			c0.3-0.2,0.4-0.4,0.5-0.9c0-0.1,0.1-0.2,0.1-0.2c0.1,0,0.1-0.1,0.2-0.1h1.6c0.1,0,0.1,0,0.2,0.1c0.1,0,0.1,0.1,0.1,0.2
			c0,0.4-0.1,0.9-0.3,1.2c-0.2,0.4-0.5,0.7-0.8,0.9s-0.7,0.4-1.2,0.6s-0.9,0.2-1.5,0.2l-0.2,0.5c0,0,0.1,0,0.2-0.1s0.1,0,0.2,0
			c0.3,0,0.5,0.1,0.7,0.3c0.2,0.2,0.3,0.4,0.3,0.8c0,0.3-0.1,0.6-0.3,0.8S95.5,18.3,95.1,18.3z"/>
		<path class="st0" d="M99.5,15.7c-0.1,0-0.1,0-0.2-0.1c-0.1-0.1-0.1-0.1-0.1-0.2c0,0,0-0.1,0-0.1l2.8-7.7c0-0.1,0.1-0.2,0.1-0.2
			s0.2-0.1,0.3-0.1h1.8c0.1,0,0.2,0,0.3,0.1s0.1,0.1,0.2,0.2l2.8,7.7c0,0,0,0.1,0,0.1c0,0.1,0,0.1-0.1,0.2c-0.1,0.1-0.1,0.1-0.2,0.1
			h-1.5c-0.1,0-0.2,0-0.3-0.1c-0.1-0.1-0.1-0.1-0.1-0.2l-0.5-1.2h-3.2l-0.5,1.2c0,0-0.1,0.1-0.1,0.2c-0.1,0.1-0.2,0.1-0.3,0.1H99.5z
			 M102.4,12.4h2.2l-1.1-3.2L102.4,12.4z"/>
	</g>
</g>
</svg>
